THE BIG I,AM 2010 DvDRip XviD 

Format                           : AVI
Format/Info                      : Audio Video Interleave
File size                        : 653 MiB
Duration                         : 1h 42mn
Overall bit rate                 : 894 Kbps
Writing application              : MEncoder SVN-r29352(20090610-gcc4.3.3)
Writing library                  : MPlayer

Video
ID                               : 0
Format                           : MPEG-4 Visual
Format profile                   : AdvancedSimple@L5
Format settings, BVOP            : Yes
Format settings, QPel            : No
Format settings, GMC             : No warppoints
Format settings, Matrix          : Default (H.263)
Codec ID                         : XVID
Codec ID/Hint                    : XviD
Duration                         : 1h 42mn
Bit rate                         : 753 Kbps
Width                            : 640 pixels
Height                           : 360 pixels
Display aspect ratio             : 16:9
Frame rate                       : 25.000 fps
Resolution                       : 24 bits
Colorimetry                      : 4:2:0
Scan type                        : Progressive
Bits/(Pixel*Frame)               : 0.131
Stream size                      : 550 MiB (84%)
Writing library                  : XviD 1.2.1 (UTC 2008-12-04)

Audio
ID                               : 1
Format                           : MPEG Audio
Format version                   : Version 1
Format profile                   : Layer 3
Codec ID                         : 55
Codec ID/Hint                    : MP3
Duration                         : 1h 42mn
Bit rate mode                    : Constant
Bit rate                         : 128 Kbps
Channel(s)                       : 2 channels
Sampling rate                    : 44.1 KHz
Resolution                       : 16 bits
Video delay                      : 80ms
Stream size                      : 93.5 MiB (14%)
Alignment                        : Aligned on interleaves
Interleave, duration             : 26 ms (0.65 video frame)
Interleave, preload duration     : 522 ms
Writing library                  : LAME3.98

"A cruel twist of fate catapults small time crook Mickey Skinner into the big league, as head of a brutal London gang, poised on the brink of a lucrative human trafficking deal
 
http://www.imdb.com/title/tt1225302/

PLEASE SEED AND ENJOY THANKS

Screen Shots
 
http://img121.imageshack.us/img121/9958/thebigiamxvidvieavithum.jpg

